inDegrees=no
num_controls=7
num_derivatives=13
num_iterations=60
num_multipliers=7
num_parameters=0
num_slacks=7
num_states=26
objective=0.341361
objective_accelerations=0.041866
objective_balance=0.003230
objective_effort=0.025255
objective_height=0.264606
objective_ligament=0.006404
solver_duration=885.056718
status=Solve_Succeeded
success=true
DataType=double
version=3
OpenSimVersion=4.5
endheader
time	/jointset/ground_pelvis/pelvis_tilt/value	/jointset/ground_pelvis/pelvis_tx/value	/jointset/ground_pelvis/pelvis_ty/value	/jointset/hip_l/hip_flexion_l/value	/jointset/hip_l/hip_adduction_l/value	/jointset/hip_l/hip_rotation_l/value	/jointset/back/lumbar_extension/value	/jointset/patellofemoral_l/patellar_flexion_l/value	/jointset/knee_l/knee_flexion_l/value	/jointset/knee_l/knee_adduction_l/value	/jointset/knee_l/knee_rotation_l/value	/jointset/ankle_l/ankle_angle_l/value	/jointset/subtalar_l/subtalar_angle_l/value	/jointset/ground_pelvis/pelvis_tilt/speed	/jointset/ground_pelvis/pelvis_tx/speed	/jointset/ground_pelvis/pelvis_ty/speed	/jointset/hip_l/hip_flexion_l/speed	/jointset/hip_l/hip_adduction_l/speed	/jointset/hip_l/hip_rotation_l/speed	/jointset/back/lumbar_extension/speed	/jointset/patellofemoral_l/patellar_flexion_l/speed	/jointset/knee_l/knee_flexion_l/speed	/jointset/knee_l/knee_adduction_l/speed	/jointset/knee_l/knee_rotation_l/speed	/jointset/ankle_l/ankle_angle_l/speed	/jointset/subtalar_l/subtalar_angle_l/speed	/forceset/tau_hip_flexion_l	/forceset/tau_hip_adduction_l	/forceset/tau_hip_rotation_l	/forceset/tau_knee_flexion_l	/forceset/tau_ankle_angle_l	/forceset/tau_subtalar_angle_l	/forceset/tau_lumbar_extension	lambda_cid13_p0	lambda_cid13_p1	lambda_cid13_p2	lambda_cid13_p3	lambda_cid13_p4	lambda_cid13_p5	lambda_cid14_p0	/jointset/ground_pelvis/pelvis_tilt/accel	/jointset/ground_pelvis/pelvis_tx/accel	/jointset/ground_pelvis/pelvis_ty/accel	/jointset/hip_l/hip_flexion_l/accel	/jointset/hip_l/hip_adduction_l/accel	/jointset/hip_l/hip_rotation_l/accel	/jointset/back/lumbar_extension/accel	/jointset/patellofemoral_l/patellar_flexion_l/accel	/jointset/knee_l/knee_flexion_l/accel	/jointset/knee_l/knee_adduction_l/accel	/jointset/knee_l/knee_rotation_l/accel	/jointset/ankle_l/ankle_angle_l/accel	/jointset/subtalar_l/subtalar_angle_l/accel	gamma_cid13_p0	gamma_cid13_p1	gamma_cid13_p2	gamma_cid13_p3	gamma_cid13_p4	gamma_cid13_p5	gamma_cid14_p0
0.5	-0.2417547578289873	-0.03136419949367773	0.5836335148500585	1.5894051441846	-0.3379514241090269	0.172690219766813	-0.4351505605694785	1.581643843707322	1.581643843707351	0.05886949986428759	-0.1738614110284307	0.4136847029631003	0.2493751937494898	-0.4263807181133268	-0.09267888943207708	-1.047210170145249	3.196340933339727	0.1736614965378148	0.9513803097670063	-0.05332419777880786	2.878983525343997	2.878983525344021	0.3376627891983011	0.003323165164686483	0.3549872157470586	0.4755091588878354	-0.1581196969706606	-0.009867771544199469	-0.006733514654975053	-0.3710373419397845	0.06791082443959635	0.02765489968390139	0.1703130499694276	-6.90449679497583	-4.23471431355456	-7.106838753592884	-8.456887485361992	-514.8689112066634	-108.1203761629475	-0.02400717449384414	3.457197883067053	1.385318178180262	1.20817190082582	-6.968427508121437	0.8849364960515161	-0.4288800565765761	1.594989403663891	-6.328446567651729	-6.328446567651907	-0.7722444792933347	0.008559296140110657	-3.171506661168408	0.01232214047033983	1.637119698759128e-07	-2.094955832426474e-06	-1.857959870782385e-06	-9.027759569957327e-07	-3.527749313046181e-08	-3.522176079951033e-06	2.028231325007536e-07
0.51	-0.2458449691121988	-0.03222247285075084	0.5732246026854153	1.621016299880779	-0.3361708531667815	0.1821796378204986	-0.4356073786628994	1.610114673284196	1.610114673284232	0.0622092446952241	-0.1738290374404749	0.4170762736468507	0.2541296602804494	-0.3915483247505601	-0.07905033518625675	-1.034276788056584	3.125384908242437	0.1824497496469157	0.9464430997751511	-0.03842164362046457	2.814902723222366	2.814902723222382	0.3302366782683618	0.003144095006996263	0.3233991742398688	0.4753234151388513	-0.1614211286243999	-0.01063945758052132	-0.007029810247188466	-0.3793504565887337	0.06866279975010689	0.02713190756560661	0.1728198176191139	-7.24412494550129	-3.651214923308252	-7.538991914598411	-7.705193211668227	-521.2909137194601	-110.1847829651686	-0.02384307108968228	3.513209456815851	1.340257219327097	1.3802410033304	-7.235006492101619	0.8756117318375691	-0.5351326367271814	1.380555014737568	-6.489899532659562	-6.489899532660727	-0.7352354797105251	-0.03282186179488789	-3.141673896524017	-0.04255951089670447	1.889163790813801e-07	-2.029759758521096e-06	-2.138548960006141e-06	-9.16519497166609e-07	8.193445547042383e-09	-4.078666514696293e-06	3.012160060093097e-07
0.52	-0.2495834665829948	-0.03294673403105679	0.5629538882697477	1.651902732029672	-0.3343024312907453	0.1916178855410192	-0.4359266378961749	1.637936294340205	1.637936294340248	0.06547324020089261	-0.1737987908921125	0.4201541197153233	0.2588805619982564	-0.3560379556304235	-0.06587645407864526	-1.019570620350185	3.051396223882398	0.1912316832959435	0.9411462431338088	-0.02581242574940527	2.749141821171101	2.74914182117111	0.3225129241437717	0.00289775724645474	0.2922422926914875	0.4747961962573106	-0.1647225602781413	-0.01141114361683465	-0.007326105839382509	-0.3876635712376815	0.0694147750606189	0.02660891544732644	0.1753265852687989	-7.605020057163046	-3.063900464540076	-7.971859554552426	-6.924898658220356	-527.9073102876611	-112.3802078179802	-0.02367834818205406	3.592793034541066	1.294383550538462	1.562729024372748	-7.574959360671141	0.8836726040369001	-0.5008093864739631	1.136322146207111	-6.664466553578714	-6.664466553578693	-0.8317731182234959	-0.004894224430143375	-3.085274669406741	-0.05597288604101627	2.068343082989575e-07	-1.926891085408213e-06	-2.287680293886494e-06	-9.110247093390988e-07	4.059339895381063e-08	-4.514309606759265e-06	3.796711932473049e-07
0.53	-0.2529641112416938	-0.03354169930878308	0.5528387940928516	1.682034822721381	-0.3323461205513595	0.2010009299673148	-0.4361314472269866	1.665092424677579	1.665092424677613	0.06865907703384852	-0.1737707136996171	0.4229229815974976	0.2636249098443865	-0.3200128434301259	-0.05320702246155908	-1.003179900179259	2.974552771522648	0.2000124530936074	0.9353818059561835	-0.01558247195161257	2.681849644208658	2.681849644208668	0.3146052198993878	0.002713434895177639	0.261643948842153	0.4740167060743383	-0.1671055217096528	-0.01224357905197929	-0.007701723880664598	-0.3953226091520312	0.07038800271490839	0.02605509699582727	0.1770130059323615	-7.840960998973526	-2.487298837487113	-8.40047923278274	-6.163291104713191	-533.407371200782	-114.4700037514714	-0.02351141762300355	3.619066635848735	1.239478190267568	1.717502263233699	-7.809421450942168	0.8728842334165647	-0.6262526063746217	0.9013772657801095	-6.796867757866633	-6.796867757866438	-0.7775475361569614	-0.02647458438636622	-3.030070996083507	-0.09686132626184596	2.167036142003349e-07	-1.825600237415645e-06	-2.357328933548926e-06	-8.953832694216216e-07	6.348159936861258e-08	-4.843866365041449e-06	4.383436363335224e-07
0.54	-0.2559821655137732	-0.03401271922574361	0.5428956588676211	1.711384402234036	-0.3303024811008383	0.2103239316772421	-0.4362469479659755	1.69156857834727	1.691568578347292	0.07176438113264633	-0.1737447343994203	0.425389268690501	0.2683598779403196	-0.2835198783068473	-0.04108738192549296	-0.9851788300170887	2.894893988070291	0.2086974255226868	0.9291376998598456	-0.007950707385234445	2.613146487634635	2.613146487634646	0.30640637731056	0.002478178787506411	0.2317273348573491	0.4729202462179063	-0.1694884831411265	-0.01307601448710822	-0.008077341921911958	-0.4029816470663779	0.07136123036919402	0.02550127854435063	0.1786994265959635	-8.098657300645604	-1.907688782116235	-8.828665633020965	-5.370909917178856	-539.1169014410998	-116.6868227811615	-0.02333352897584766	3.686363619137345	1.18442533433442	1.884799022621573	-8.138025579192647	0.8645131303199902	-0.5967431702165068	0.6166842999242136	-6.946662475894534	-6.946662475894557	-0.8900007871123008	-0.01508097570895972	-2.948928696500677	-0.1193668207329493	2.176680602625121e-07	-1.726055068279597e-06	-2.33903927322557e-06	-8.685157463407765e-07	7.584615817528148e-08	-5.056051009353398e-06	4.751287880177729e-07
0.55	-0.2586335619120291	-0.03436533220866731	0.5331402832931889	1.739923820677493	-0.3281725349759234	0.2195818047480733	-0.436298568985585	1.717351181729923	1.717351181729927	0.07478652596134787	-0.1737208937176672	0.4275604301164707	0.2730826337877749	-0.2467199661068417	-0.0295291859549754	-0.9656561855035148	2.812546186698483	0.2172522813796698	0.9223292849100539	-0.002777328534335751	2.543190258877347	2.543190258877358	0.297984074891445	0.002292520559225819	0.2026833481891607	0.4715876808825064	-0.1713049003043768	-0.01396902996386239	-0.00853993282621973	-0.4097798542072967	0.07236915957362462	0.02492466976733453	0.1799219460350149	-8.292010508381642	-1.343975277134067	-9.237721166520361	-4.657832198356596	-543.8621004462884	-118.7777779009604	-0.02314285290660021	3.682703145810325	1.127250261824881	2.022028588693553	-8.349690205150456	0.8453354449355576	-0.7388600954448797	0.4070898786802108	-7.047791617146038	-7.047791617146012	-0.8239430593499355	-0.02055700805421581	-2.855396336880339	-0.1461481328790646	2.079811899555433e-07	-1.591596271736572e-06	-2.174823137722398e-06	-8.276945749265182e-07	7.951061468935192e-08	-4.931263035552419e-06	4.648756858262225e-07
0.5600000000000001	-0.2609157795632068	-0.03460521652520284	0.5235873404484862	1.767626454549439	-0.3259581675661287	0.228768399781793	-0.4363105711765271	1.742428685116702	1.742428685116687	0.07772332814785335	-0.1736989593705361	0.4294464991387778	0.2777908746332889	-0.2096841288917169	-0.01854164864785764	-0.9446922840712142	2.72753707376765	0.2255816824985743	0.9148820924368881	-2.694164314192611e-05	2.472126488460058	2.47212648846007	0.2893378488707785	0.002096911864281608	0.1747088541248747	0.4700172458296852	-0.173121317467628	-0.01486204544059844	-0.009002523730513901	-0.416578061348212	0.07337708877805918	0.02434806099035055	0.1811444654740683	-8.506605710008817	-0.7782573292041116	-9.645138920690068	-3.913816256436157	-548.8189004920989	-120.9888392020305	-0.02293366332543997	3.733548622161222	1.070293601654431	2.173050406366937	-8.670287890997853	0.8194221827043179	-0.7244986748913113	0.1320859079832429	-7.168170807894718	-7.16817080789471	-0.9347855074225889	-0.01707106904167195	-2.735030175720261	-0.1669407642172195	1.855127400055999e-07	-1.415241122305175e-06	-1.835495232003451e-06	-7.701290255121648e-07	7.273494845230455e-08	-4.402107920015939e-06	3.981766789837129e-07
0.5700000000000001	-0.2628277639408264	-0.03473788213050839	0.5142507951134241	1.794466934975118	-0.3236620944942043	0.2378777733757823	-0.4363042366393498	1.766790874461289	1.766790874461283	0.08057189581423981	-0.1736792747236729	0.4310591561977551	0.2824821893486022	-0.1727887606544656	-0.008065701661846754	-0.9224204484785199	2.640222941103246	0.2335531830171576	0.9068707318605517	0.001167543466469845	2.40021338635108	2.400213386351068	0.2803450009952713	0.001827264792305517	0.1481051949707216	0.4682179737873045	-0.1750950635536578	-0.01596804949847331	-0.009553657735556104	-0.4220047467504701	0.07396659225422482	0.02378177020975151	0.1826280642237054	-8.794671665340093	-0.2518609198415479	-9.99179645603572	-3.366266549558235	-553.0230052436427	-123.0450859831655	-0.022704529030318	3.656111297196306	1.024963346360751	2.283714085571181	-8.812394213167922	0.7742471372513788	-0.8576233211345944	0.09418397168519485	-7.217651117962767	-7.217651117966431	-0.8859948237965735	-0.03428812487845113	-2.580655939872794	-0.1901772298241632	1.704831082695841e-07	-1.222071724442016e-06	-1.51984679765778e-06	-7.05458006949612e-07	7.182314370461608e-08	-3.907023120915074e-06	3.438914654521914e-07
